<svg width="16" height="10" viewBox="0 0 16 10" fill="none" xmlns="http://www.w3.org/2000/svg">
<path d="M6.44444 4.48075C7.32778 4.05982 7.78889 3.42287 7.78889 2.43146C7.78889 0.476322 6.32778 0 4.64167 0H0V9.81446H4.77222C6.56111 9.81446 8.24167 8.95874 8.24167 6.96483C8.24167 5.73248 7.65556 4.82138 6.44444 4.48075ZM2.16389 1.67544H4.19444C4.975 1.67544 5.67778 1.89421 5.67778 2.79701C5.67778 3.63057 5.13056 3.96566 4.35833 3.96566H2.16389V1.67544ZM4.47778 8.14733H2.16389V5.44448H4.52222C5.475 5.44448 6.07778 5.84049 6.07778 6.84575C6.07778 7.83716 5.35833 8.14733 4.47778 8.14733ZM14.4361 1.48158H10.4444V0.515093H14.4361V1.48158ZM16 6.36389C16 4.26198 14.7667 2.509 12.5306 2.509C10.3583 2.509 8.88333 4.13736 8.88333 6.26973C8.88333 8.48242 10.2806 10 12.5306 10C14.2333 10 15.3361 9.23567 15.8667 7.61008H14.1389C13.9528 8.21656 13.1861 8.5378 12.5917 8.5378C11.4444 8.5378 10.8417 7.86763 10.8417 6.72944H15.9833C15.9917 6.61313 16 6.48851 16 6.36389ZM10.8444 5.49986C10.9083 4.5666 11.5306 3.98228 12.4694 3.98228C13.4528 3.98228 13.9472 4.55829 14.0306 5.49986H10.8444Z" fill="white"/>
</svg>
