<svg width="16" height="17" viewBox="0 0 16 17" fill="none" xmlns="http://www.w3.org/2000/svg">
<path d="M12.0715 12.1809C11.2249 12.929 10.1301 13.335 9.00041 13.3198C6.39712 13.3198 4.48533 11.408 4.48533 8.78439C4.48533 6.16076 6.3361 4.33033 9.00041 4.33033C10.1326 4.31502 11.2316 4.71267 12.0918 5.44893L12.6613 5.93704L15.1832 3.41511L14.5527 2.8253C13.0273 1.46245 11.0458 0.72209 9.00041 0.750805C4.32262 0.750805 0.926147 4.12694 0.926147 8.76405C0.926147 13.4012 4.40398 16.879 9.00041 16.879C11.0652 16.9066 13.0637 16.1508 14.5934 14.7638L15.2036 14.1943L12.6409 11.6724L12.0715 12.1809Z" fill="white"/>
<path d="M8.87844 11.5096C10.3724 11.5096 11.5834 10.2985 11.5834 8.80459C11.5834 7.31067 10.3724 6.09961 8.87844 6.09961C7.38452 6.09961 6.17346 7.31067 6.17346 8.80459C6.17346 10.2985 7.38452 11.5096 8.87844 11.5096Z" fill="white"/>
</svg>
