<svg width="17" height="15" viewBox="0 0 17 15" fill="none" xmlns="http://www.w3.org/2000/svg">
<path d="M3.80527 15H0.280804V4.98527H3.80527V15ZM2.04114 3.61917C0.914129 3.61917 0 2.79549 0 1.80104C8.06665e-09 1.32338 0.215048 0.865275 0.597836 0.527514C0.980623 0.189752 1.49979 0 2.04114 0C2.58248 0 3.10165 0.189752 3.48444 0.527514C3.86723 0.865275 4.08228 1.32338 4.08228 1.80104C4.08228 2.79549 3.16777 3.61917 2.04114 3.61917ZM16.9962 15H13.4793V10.1249C13.4793 8.96303 13.4528 7.47305 11.6469 7.47305C9.81446 7.47305 9.53366 8.73535 9.53366 10.0412V15H6.01299V4.98527H9.39326V6.35137H9.44259C9.91313 5.56452 11.0625 4.73415 12.7773 4.73415C16.3443 4.73415 17 6.80674 17 9.49876V15H16.9962Z" fill="white"/>
</svg>
