<svg width="20" height="17" viewBox="0 0 20 17" fill="none" xmlns="http://www.w3.org/2000/svg">
<path d="M17.547 4.44061C17.5591 4.6156 17.5591 4.79063 17.5591 4.96562C17.5591 10.3031 13.6409 16.4531 6.47972 16.4531C4.27348 16.4531 2.224 15.7906 0.5 14.6406C0.813464 14.6781 1.11483 14.6906 1.44036 14.6906C3.26076 14.6906 4.93655 14.0531 6.27476 12.9656C4.56282 12.9281 3.12817 11.7656 2.63387 10.1656C2.87501 10.2031 3.11611 10.2281 3.36931 10.2281C3.71892 10.2281 4.06856 10.1781 4.39405 10.0906C2.60979 9.7156 1.27154 8.09062 1.27154 6.12812V6.07814C1.78993 6.37814 2.39277 6.56563 3.03169 6.59061C1.98282 5.86559 1.29567 4.62811 1.29567 3.2281C1.29567 2.47811 1.48852 1.79061 1.82611 1.19061C3.743 3.6406 6.62437 5.24058 9.85531 5.41561C9.79504 5.11561 9.75886 4.80314 9.75886 4.49063C9.75886 2.2656 11.4949 0.453125 13.6529 0.453125C14.7741 0.453125 15.7868 0.940624 16.4981 1.72812C17.3782 1.55313 18.2221 1.21562 18.9696 0.753127C18.6802 1.69065 18.0653 2.47815 17.2576 2.97811C18.0413 2.89066 18.8008 2.66561 19.5 2.35314C18.9696 3.15311 18.3065 3.86558 17.547 4.44061Z" fill="white"/>
</svg>
