<svg width="20" height="20" viewBox="0 0 20 20" fill="none" xmlns="http://www.w3.org/2000/svg">
<path d="M9.35726 1.98435C7.43417 1.98435 5.86978 3.54874 5.86978 5.47183L5.86976 12.8157C5.86976 13.0423 6.05334 13.2259 6.27999 13.2259C6.50663 13.2259 6.69022 13.0423 6.69022 12.8157L6.69022 5.47185C6.69078 4.04685 7.93224 2.80539 9.35724 2.80483C10.8276 2.80483 12.024 4.00124 12.024 5.47158L12.0817 15.784C12.0817 16.6611 11.3177 17.4251 10.4406 17.4251C9.53568 17.4251 8.79966 16.6891 8.79966 15.7842L8.74164 5.88177C8.74164 5.55316 9.02833 5.26646 9.35697 5.26644C9.69634 5.26644 9.97258 5.54268 9.9726 5.88206L10.0306 15.3737C10.0306 15.5694 10.2451 15.7839 10.4408 15.7839C10.6675 15.7839 10.8511 15.6004 10.8511 15.3737L10.793 5.88206C10.793 5.08991 10.1491 4.44598 9.35695 4.446C8.58978 4.446 7.92116 5.11574 7.92118 5.88177L7.97918 15.7842C7.97918 17.1309 9.0938 18.2455 10.4405 18.2456C11.0984 18.2456 11.7127 17.9856 12.1776 17.5207C12.6425 17.0558 12.9025 16.4415 12.9022 15.784L12.8444 5.47156C12.8444 3.54847 11.2803 1.98435 9.35726 1.98435Z" fill="#000"/>
</svg>
