<svg width="16" height="17" viewBox="0 0 16 17" fill="none" xmlns="http://www.w3.org/2000/svg">
<path d="M5.35161 13.8373C5.35161 13.9034 5.27742 13.9564 5.18387 13.9564C5.07742 13.9663 5.00323 13.9134 5.00323 13.8373C5.00323 13.7711 5.07742 13.7182 5.17097 13.7182C5.26774 13.7082 5.35161 13.7612 5.35161 13.8373ZM4.34839 13.6884C4.32581 13.7546 4.39032 13.8307 4.4871 13.8505C4.57097 13.8836 4.66774 13.8505 4.6871 13.7843C4.70645 13.7182 4.64516 13.6421 4.54839 13.6123C4.46452 13.5891 4.37097 13.6222 4.34839 13.6884ZM5.77419 13.6322C5.68064 13.6553 5.61613 13.7182 5.62581 13.7943C5.63548 13.8604 5.71935 13.9034 5.81613 13.8803C5.90968 13.8571 5.97419 13.7943 5.96452 13.7281C5.95484 13.6652 5.86774 13.6222 5.77419 13.6322ZM7.89677 0.954102C3.42258 0.954102 0 4.43792 0 9.02676C0 12.6959 2.25161 15.8356 5.46774 16.9406C5.88064 17.0167 6.02581 16.7553 6.02581 16.5403C6.02581 16.3352 6.01613 15.2037 6.01613 14.5089C6.01613 14.5089 3.75806 15.0052 3.28387 13.523C3.28387 13.523 2.91613 12.5602 2.3871 12.3121C2.3871 12.3121 1.64839 11.7926 2.43871 11.8026C2.43871 11.8026 3.24194 11.8687 3.68387 12.6562C4.39032 13.9332 5.57419 13.566 6.03548 13.3476C6.10968 12.8183 6.31936 12.451 6.55161 12.2327C4.74839 12.0275 2.92903 11.7596 2.92903 8.57681C2.92903 7.66698 3.17419 7.21042 3.69032 6.62812C3.60645 6.41307 3.33226 5.5264 3.77419 4.38167C4.44839 4.16662 6 5.27496 6 5.27496C6.64516 5.08969 7.33871 4.99374 8.02581 4.99374C8.7129 4.99374 9.40645 5.08969 10.0516 5.27496C10.0516 5.27496 11.6032 4.16332 12.2774 4.38167C12.7194 5.52971 12.4452 6.41307 12.3613 6.62812C12.8774 7.21372 13.1935 7.67029 13.1935 8.57681C13.1935 11.7695 11.2935 12.0242 9.49032 12.2327C9.7871 12.494 10.0387 12.9903 10.0387 13.7678C10.0387 14.8828 10.029 16.2624 10.029 16.5337C10.029 16.7487 10.1774 17.0101 10.5871 16.934C13.8129 15.8356 16 12.6959 16 9.02676C16 4.43792 12.371 0.954102 7.89677 0.954102ZM3.13548 12.365C3.09355 12.3981 3.10323 12.4742 3.15806 12.537C3.20968 12.59 3.28387 12.6131 3.32581 12.5701C3.36774 12.537 3.35806 12.461 3.30323 12.3981C3.25161 12.3452 3.17742 12.322 3.13548 12.365ZM2.7871 12.097C2.76452 12.14 2.79677 12.193 2.86129 12.2261C2.9129 12.2591 2.97742 12.2492 3 12.2029C3.02258 12.1599 2.99032 12.1069 2.92581 12.0739C2.86129 12.054 2.80968 12.0639 2.7871 12.097ZM3.83226 13.2748C3.78065 13.3178 3.8 13.4171 3.87419 13.48C3.94839 13.5561 4.04194 13.566 4.08387 13.513C4.12581 13.47 4.10645 13.3708 4.04194 13.3079C3.97097 13.2318 3.87419 13.2219 3.83226 13.2748ZM3.46452 12.7885C3.4129 12.8216 3.4129 12.9076 3.46452 12.9837C3.51613 13.0598 3.60323 13.0929 3.64516 13.0598C3.69677 13.0168 3.69677 12.9308 3.64516 12.8547C3.6 12.7786 3.51613 12.7455 3.46452 12.7885Z" fill="white"/>
</svg>
