<svg width="16" height="17" viewBox="0 0 16 17" fill="none" xmlns="http://www.w3.org/2000/svg">
<path d="M8 0.953613C3.58877 0.953613 0 4.54239 0 8.95361C0 13.3648 3.58877 16.9536 8 16.9536C12.4112 16.9536 16 13.3648 16 8.95361C16 4.54239 12.4112 0.953613 8 0.953613ZM13.2894 4.64284C14.2411 5.80561 14.8174 7.28661 14.8324 8.89945C14.6071 8.85181 12.348 8.39358 10.0743 8.67952C9.88874 8.22658 9.71361 7.82813 9.47374 7.33713C12.0002 6.30561 13.1453 4.83771 13.2894 4.64284ZM12.5297 3.85265C12.4068 4.02771 11.3782 5.41026 8.94839 6.321C7.82864 4.26371 6.58758 2.57365 6.39871 2.32074C8.56568 1.79839 10.8492 2.36171 12.5297 3.85265ZM5.09487 2.78006C5.27503 3.02713 6.4961 4.71929 7.62832 6.73197C4.43197 7.58077 1.61671 7.56855 1.3111 7.56452C1.75419 5.4441 3.18316 3.68177 5.09487 2.78006ZM1.16677 8.96403C1.16677 8.89416 1.16816 8.82461 1.17026 8.75523C1.46923 8.76136 4.78058 8.80403 8.19303 7.78277C8.38865 8.16561 8.57552 8.55423 8.74703 8.94242C6.2761 9.63839 4.0311 11.6368 2.92345 13.5329C1.83206 12.3215 1.16677 10.7191 1.16677 8.96403ZM3.80571 14.3548C4.51948 12.8956 6.45661 11.0121 9.21148 10.0723C10.1708 12.5653 10.5676 14.6547 10.6692 15.2542C8.47203 16.1901 5.83 15.9333 3.80571 14.3548ZM11.818 14.6286C11.7479 14.2129 11.3842 12.2126 10.4905 9.75658C12.6318 9.41381 14.5131 9.9749 14.7468 10.0487C14.4423 11.95 13.3509 13.592 11.818 14.6286Z" fill="white"/>
</svg>
